<?xml version="1.0" encoding="utf-8"?>
<!-- Generator: Adobe Illustrator 23.0.1, SVG Export Plug-In . SVG Version: 6.00 Build 0)  -->
<svg version="1.1" id="Sprite" xmlns="http://www.w3.org/2000/svg" xmlns:xlink="http://www.w3.org/1999/xlink" x="0px" y="0px"
	 viewBox="0 0 500 500" style="enable-background:new 0 0 500 500;" xml:space="preserve">
<style type="text/css">
	.st0{fill:#BA3CDE;}
	.st1{fill:#BA3CDE;stroke:#BA3CDE;stroke-linecap:round;stroke-linejoin:round;stroke-miterlimit:10;}
</style>
<g>
	<g>
		<path class="st0" d="M238,187.4l-38.9,105h-13.5l-38.1-105h13.7l29.1,83.3c0.5,1.3,0.9,2.8,1.2,4.3c0.3,1.6,0.6,3.2,0.9,5h0.3
			c0.2-1.5,0.5-3,0.9-4.6c0.4-1.6,0.9-3.2,1.5-4.9l29.7-83.1H238z"/>
		<path class="st0" d="M358,292.4h-12v-43.1c0-8.3-1.3-14.3-3.8-18c-2.6-3.7-6.9-5.6-12.9-5.6c-5.1,0-9.5,2.3-13.1,7
			s-5.4,10.3-5.4,16.8v42.8h-12v-44.5c0-7.4-1.4-12.9-4.2-16.6c-2.8-3.7-7.1-5.5-12.8-5.5c-5.3,0-9.6,2.2-13,6.6
			c-3.4,4.4-5.1,10.2-5.1,17.2v42.8h-12v-75h12v11.9h0.3c2.7-4.5,6-7.9,9.9-10.2c3.9-2.3,8.4-3.4,13.4-3.4c5.1,0,9.6,1.4,13.4,4.3
			c3.8,2.9,6.4,6.6,7.8,11.2c2.8-5.2,6.2-9.1,10.4-11.6c4.1-2.6,9-3.9,14.5-3.9c8.3,0,14.4,2.5,18.6,7.6c4.1,5.1,6.2,12.7,6.2,22.9
			V292.4z"/>
	</g>
</g>
<path class="st1" d="M422.3,247.6c12.4,18.9,1.5,55.5,6,56.4c3.2,0.6,11.1-17.2,13.8-37.4c-8.4,98.6-91.1,175.9-191.8,175.9
	C144,442.5,57.9,356.3,57.9,250S144,57.5,250.4,57.5c17.4,0,34.3,2.3,50.4,6.7h0h0c-8.4-2-12-2.2-12.4-1.2c-0.6,1.6,6.7,5.4,6,7
	c-1.4,3.1-31.6-9-33-6c-0.9,1.8,15.9,9.5,15,12c-1,2.9-23.3-6.7-53-6c-22.2,0.5-40.1,7.2-40,8c0.1,0.6,8.8-1.6,21-1
	c7.6,0.4,14.1,1.8,19.2,3.2c-81.5,13.2-143.7,83.8-143.7,169c0,94.6,76.7,171.3,171.3,171.3s171.3-76.7,171.3-171.3
	C422.4,248.7,422.4,248.1,422.3,247.6z"/>
</svg>
